<?xml version="1.0" encoding="UTF-8"?>
<svg width="46px" height="46px" viewBox="0 0 46 46" version="1.1" xmlns="http://www.w3.org/2000/svg" xmlns:xlink="http://www.w3.org/1999/xlink">
    <!-- Generator: Sketch 41.2 (35397) - http://www.bohemiancoding.com/sketch -->
    <title>dribbble_purple</title>
    <desc>Created with Sketch.</desc>
    <defs></defs>
    <g id="Page-1" stroke="none" stroke-width="1" fill="none" fill-rule="evenodd">
        <g id="Dribbble-Copy" transform="translate(-160.000000, -301.000000)" fill="#191654">
            <path d="M193.977303,340.290258 C193.777151,339.105709 192.730405,333.33982 190.152761,326.262273 C196.495443,325.248104 201.988828,326.987066 202.394543,327.119584 C201.520903,332.593392 198.386076,337.312658 193.977303,340.290258 L193.977303,340.290258 L193.977303,340.290258 Z M183.001352,343.643777 C178.246369,343.643777 173.886282,341.953495 170.486388,339.140867 C170.746046,339.351814 170.927265,339.484332 170.927265,339.484332 C170.927265,339.484332 174.692303,331.27362 186.341742,327.21424 C186.385018,327.198013 186.430999,327.187195 186.474275,327.173673 C189.238549,334.353989 190.377256,340.368687 190.669371,342.086013 C188.313518,343.08666 185.719645,343.643777 183.001352,343.643777 L183.001352,343.643777 L183.001352,343.643777 Z M163.356618,323.998648 C163.356618,323.790405 163.367437,323.584867 163.372846,323.379329 C163.721762,323.387442 173.426471,323.606502 183.539601,320.580222 C184.102193,321.680934 184.640442,322.803281 185.13271,323.920219 C184.873052,323.990534 184.616099,324.068963 184.359146,324.155506 C173.759158,327.57934 168.382078,337.115233 168.382078,337.115233 C168.382078,337.115233 168.390192,337.123346 168.390192,337.126051 C165.260775,333.645423 163.356618,329.045153 163.356618,323.998648 L163.356618,323.998648 L163.356618,323.998648 Z M174.619274,306.238521 C174.881637,306.587395 178.514141,311.512199 181.914035,317.553942 C172.482507,320.060968 164.295173,319.960903 163.778562,319.95279 C165.052508,313.867776 169.139413,308.823976 174.619274,306.238521 L174.619274,306.238521 L174.619274,306.238521 Z M178.295055,304.929567 C178.295055,304.932271 178.29235,304.934976 178.29235,304.934976 C178.29235,304.934976 178.268007,304.940385 178.232845,304.945793 C178.254483,304.940385 178.273417,304.93768 178.295055,304.929567 L178.295055,304.929567 L178.295055,304.929567 Z M195.973423,309.262097 C195.924737,309.335117 193.128006,313.594626 185.711531,316.372097 C182.354913,310.203245 178.665608,305.302781 178.370788,304.91334 C179.855706,304.553648 181.405539,304.358928 183.001352,304.358928 C187.972717,304.358928 192.514024,306.214181 195.973423,309.262097 L195.973423,309.262097 L195.973423,309.262097 Z M202.637973,323.803927 C202.353972,323.741725 195.705651,322.311071 188.957253,323.160268 C188.816605,322.824916 188.678662,322.48686 188.532604,322.148804 C188.124184,321.186019 187.683307,320.234053 187.226201,319.298313 C194.983477,316.131401 198.131828,311.579811 198.169695,311.525722 C200.923149,314.871127 202.591992,319.144159 202.637973,323.803927 L202.637973,323.803927 L202.637973,323.803927 Z M205.53478,319.371333 C205.231846,317.894703 204.777445,316.437004 204.19051,315.046916 C203.617099,313.683873 202.900335,312.36951 202.069971,311.14169 C201.250426,309.924687 200.303757,308.778 199.265126,307.739491 C198.22379,306.698277 197.079673,305.754424 195.859822,304.932271 C194.631857,304.0993 193.31734,303.38803 191.954137,302.809277 C190.563885,302.225116 189.10872,301.770768 187.631916,301.470574 C186.117246,301.159563 184.559299,301 183.001352,301 C181.440701,301 179.882754,301.159563 178.368084,301.470574 C176.89128,301.770768 175.436115,302.225116 174.045863,302.809277 C172.68266,303.38803 171.368143,304.0993 170.137473,304.932271 C168.920327,305.754424 167.77621,306.698277 166.734874,307.739491 C165.696243,308.778 164.752278,309.924687 163.930029,311.14169 C163.099665,312.36951 162.382901,313.683873 161.80949,315.046916 C161.219851,316.437004 160.768154,317.894703 160.46522,319.371333 C160.156877,320.883121 160,322.440884 160,323.998648 C160,325.56182 160.156877,327.119584 160.46522,328.634076 C160.768154,330.110706 161.219851,331.565701 161.80949,332.953084 C162.382901,334.316127 163.099665,335.635899 163.930029,336.863719 C164.752278,338.080722 165.696243,339.222 166.734874,340.265918 C167.77621,341.304427 168.920327,342.245576 170.137473,343.070433 C171.368143,343.9007 172.68266,344.614675 174.045863,345.190723 C175.436115,345.780293 176.89128,346.229232 178.368084,346.529426 C179.882754,346.843142 181.440701,347 183.001352,347 C184.559299,347 186.117246,346.843142 187.631916,346.529426 C189.10872,346.229232 190.563885,345.780293 191.954137,345.190723 C193.31734,344.614675 194.631857,343.9007 195.859822,343.070433 C197.079673,342.245576 198.22379,341.304427 199.265126,340.265918 C200.303757,339.222 201.250426,338.080722 202.069971,336.863719 C202.900335,335.635899 203.617099,334.316127 204.19051,332.953084 C204.777445,331.565701 205.231846,330.110706 205.53478,328.634076 C205.843123,327.119584 206,325.56182 206,323.998648 C206,322.440884 205.843123,320.883121 205.53478,319.371333 L205.53478,319.371333 L205.53478,319.371333 Z" id="dribbble_purple"></path>
        </g>
    </g>
</svg>