<?xml version="1.0" encoding="UTF-8"?>
<svg width="48px" height="48px" viewBox="0 0 48 48" version="1.1" xmlns="http://www.w3.org/2000/svg" xmlns:xlink="http://www.w3.org/1999/xlink">
    <!-- Generator: Sketch 41.2 (35397) - http://www.bohemiancoding.com/sketch -->
    <title>instagram_white</title>
    <desc>Created with Sketch.</desc>
    <defs></defs>
    <g id="Page-1" stroke="none" stroke-width="1" fill="none" fill-rule="evenodd">
        <g id="Dribbble-Copy" transform="translate(-59.000000, -390.000000)" fill="#FFFFFF">
            <path d="M83.0000476,390 C76.4819913,390 75.6646859,390.027628 73.1048307,390.144427 C70.5503105,390.260939 68.8056649,390.666687 67.279088,391.260017 C65.7008759,391.873258 64.3624536,392.693897 63.0281279,394.028128 C61.6938975,395.362454 60.8732576,396.700876 60.2600166,398.279088 C59.6666865,399.805665 59.2609395,401.550311 59.1444265,404.104831 C59.0276278,406.664686 59,407.481991 59,414.000048 C59,420.518009 59.0276278,421.335314 59.1444265,423.895169 C59.2609395,426.449689 59.6666865,428.194335 60.2600166,429.720912 C60.8732576,431.299124 61.6938975,432.637546 63.0281279,433.971872 C64.3624536,435.306103 65.7008759,436.126742 67.279088,436.740079 C68.8056649,437.333313 70.5503105,437.739061 73.1048307,437.855573 C75.6646859,437.972372 76.4819913,438 83.0000476,438 C89.5180087,438 90.3353141,437.972372 92.8951693,437.855573 C95.4496895,437.739061 97.1943351,437.333313 98.720912,436.740079 C100.299124,436.126742 101.637546,435.306103 102.971872,433.971872 C104.306103,432.637546 105.126742,431.299124 105.740079,429.720912 C106.333313,428.194335 106.739061,426.449689 106.855573,423.895169 C106.972372,421.335314 107,420.518009 107,414.000048 C107,407.481991 106.972372,406.664686 106.855573,404.104831 C106.739061,401.550311 106.333313,399.805665 105.740079,398.279088 C105.126742,396.700876 104.306103,395.362454 102.971872,394.028128 C101.637546,392.693897 100.299124,391.873258 98.720912,391.260017 C97.1943351,390.666687 95.4496895,390.260939 92.8951693,390.144427 C90.3353141,390.027628 89.5180087,390 83.0000476,390 Z M83.0000476,394.324317 C89.4082597,394.324317 90.1673564,394.348801 92.6980595,394.464266 C95.0380358,394.570966 96.3088177,394.961946 97.154513,395.290621 C98.2747712,395.725997 99.0742615,396.246066 99.9140503,397.08595 C100.753934,397.925738 101.274003,398.725229 101.709379,399.845487 C102.038054,400.691182 102.429034,401.961964 102.535734,404.30194 C102.651199,406.832644 102.675683,407.59174 102.675683,414.000048 C102.675683,420.40826 102.651199,421.167356 102.535734,423.69806 C102.429034,426.038036 102.038054,427.308818 101.709379,428.154513 C101.274003,429.274771 100.753934,430.074262 99.9140503,430.91405 C99.0742615,431.753934 98.2747712,432.274003 97.154513,432.709379 C96.3088177,433.038054 95.0380358,433.429034 92.6980595,433.535734 C90.1677374,433.651199 89.4087361,433.675683 83.0000476,433.675683 C76.5912639,433.675683 75.8323578,433.651199 73.3019405,433.535734 C70.9619642,433.429034 69.6911823,433.038054 68.845487,432.709379 C67.7252288,432.274003 66.9257385,431.753934 66.0859497,430.91405 C65.246161,430.074262 64.7259969,429.274771 64.2906214,428.154513 C63.9619463,427.308818 63.5709658,426.038036 63.4642655,423.69806 C63.3488005,421.167356 63.3243166,420.40826 63.3243166,414.000048 C63.3243166,407.59174 63.3488005,406.832644 63.4642655,404.30194 C63.5709658,401.961964 63.9619463,400.691182 64.2906214,399.845487 C64.7259969,398.725229 65.2460657,397.925738 66.0859497,397.08595 C66.9257385,396.246066 67.7252288,395.725997 68.845487,395.290621 C69.6911823,394.961946 70.9619642,394.570966 73.3019405,394.464266 C75.8326436,394.348801 76.5917403,394.324317 83.0000476,394.324317 Z M83.0000476,401.675683 C76.1934241,401.675683 70.6756834,407.193424 70.6756834,414.000048 C70.6756834,420.806576 76.1934241,426.324317 83.0000476,426.324317 C89.8065759,426.324317 95.3243166,420.806576 95.3243166,414.000048 C95.3243166,407.193424 89.8065759,401.675683 83.0000476,401.675683 Z M83.0000476,422 C78.5817014,422 75,418.418299 75,414.000048 C75,409.581701 78.5817014,406 83.0000476,406 C87.4182986,406 91,409.581701 91,414.000048 C91,418.418299 87.4182986,422 83.0000476,422 Z M98.6912836,401.188768 C98.6912836,402.779365 97.4018291,404.068724 95.8112321,404.068724 C94.2207303,404.068724 92.9312759,402.779365 92.9312759,401.188768 C92.9312759,399.598171 94.2207303,398.308716 95.8112321,398.308716 C97.4018291,398.308716 98.6912836,399.598171 98.6912836,401.188768 Z" id="instagram_white"></path>
        </g>
    </g>
</svg>