<?xml version="1.0" encoding="UTF-8"?>
<svg width="44px" height="40px" viewBox="0 0 44 40" version="1.1" xmlns="http://www.w3.org/2000/svg" xmlns:xlink="http://www.w3.org/1999/xlink">
    <!-- Generator: Sketch 41.2 (35397) - http://www.bohemiancoding.com/sketch -->
    <title>linkedIn_white</title>
    <desc>Created with Sketch.</desc>
    <defs></defs>
    <g id="Page-1" stroke="none" stroke-width="1" fill="none" fill-rule="evenodd">
        <g id="Dribbble-Copy" transform="translate(-261.000000, -394.000000)" fill="#FFFFFF">
            <path d="M305,434 L295.2754,434 L295.2754,419.9384 C295.2754,416.257796 293.754233,413.74515 290.409219,413.74515 C287.850659,413.74515 286.427799,415.440738 285.765522,417.074854 C285.517168,417.661395 285.555974,418.478453 285.555974,419.295511 L285.555974,434 L275.921919,434 C275.921919,434 276.046096,409.091247 275.921919,406.827047 L285.555974,406.827047 L285.555974,411.091631 C286.125118,409.226996 289.203669,406.565794 294.116416,406.565794 C300.21143,406.565794 305,410.474355 305,418.890824 L305,434 L305,434 Z M266.17921,403.428187 L266.117121,403.428187 C263.0127,403.428187 261,401.350964 261,398.717936 C261,396.033681 263.072201,394 266.238711,394 C269.402634,394 271.348071,396.028559 271.41016,398.710252 C271.41016,401.34328 269.402634,403.428187 266.17921,403.428187 L266.17921,403.428187 L266.17921,403.428187 Z M262.109831,406.827047 L270.685795,406.827047 L270.685795,434 L262.109831,434 L262.109831,406.827047 L262.109831,406.827047 Z" id="linkedIn_white"></path>
        </g>
    </g>
</svg>