<?xml version="1.0" encoding="UTF-8"?>
<svg width="44px" height="40px" viewBox="0 0 44 40" version="1.1" xmlns="http://www.w3.org/2000/svg" xmlns:xlink="http://www.w3.org/1999/xlink">
    <!-- Generator: Sketch 41.2 (35397) - http://www.bohemiancoding.com/sketch -->
    <title>linkedIn_purple</title>
    <desc>Created with Sketch.</desc>
    <defs></defs>
    <g id="Page-1" stroke="none" stroke-width="1" fill="none" fill-rule="evenodd">
        <g id="Dribbble-Copy" transform="translate(-261.000000, -304.000000)" fill="#191654">
            <path d="M305,344 L295.2754,344 L295.2754,329.9384 C295.2754,326.257796 293.754233,323.74515 290.409219,323.74515 C287.850659,323.74515 286.427799,325.440738 285.765522,327.074854 C285.517168,327.661395 285.555974,328.478453 285.555974,329.295511 L285.555974,344 L275.921919,344 C275.921919,344 276.046096,319.091247 275.921919,316.827047 L285.555974,316.827047 L285.555974,321.091631 C286.125118,319.226996 289.203669,316.565794 294.116416,316.565794 C300.21143,316.565794 305,320.474355 305,328.890824 L305,344 L305,344 Z M266.17921,313.428187 L266.117121,313.428187 C263.0127,313.428187 261,311.350964 261,308.717936 C261,306.033681 263.072201,304 266.238711,304 C269.402634,304 271.348071,306.028559 271.41016,308.710252 C271.41016,311.34328 269.402634,313.428187 266.17921,313.428187 L266.17921,313.428187 L266.17921,313.428187 Z M262.109831,316.827047 L270.685795,316.827047 L270.685795,344 L262.109831,344 L262.109831,316.827047 L262.109831,316.827047 Z" id="linkedIn_purple"></path>
        </g>
    </g>
</svg>